{"title":"The Adventures of Tintin (2011) CAM NL subs DutchReleaseTeam","uid":6816256,"size":746968930,"categoryP":"video","categoryS":"movies","magnet":"?xt=urn:btih:43ad771e17f67937355c34066b89a5c086c77ac0&amp;dn=The+Adventures+of+Tintin+%282011%29+CAM+NL+subs+DutchReleaseTeam&amp;tr=udp%3A%2F%2Ftracker.openbittorrent.com%3A80&amp;tr=udp%3A%2F%2Fopen.demonii.com%3A1337&amp;tr=udp%3A%2F%2Ftracker.coppersurfer.tk%3A6969&amp;tr=udp%3A%2F%2Fexodus.desync.com%3A6969","seeders":0,"leechers":1,"uploader":"Koedje","files":-1,"time":1321222524,"description":" &lt;a href=&quot;http://img689.imageshack.us/img689/2633/theadventuresoftintin.jpg&quot; rel=&quot;nofollow&quot; target=&quot;_NEW&quot;&gt;http://img689.imageshack.us/img689/2633/theadventuresoftintin.jpg&lt;/a&gt;\n\n\nVerenigde Staten / Nieuw-Zeeland\nAnimatie / Avontuur\n107 minuten\n\ngeregisseerd door Steven Spielberg\nmet Jamie Bell, Andy Serkis en Daniel Craig\n\nDe nieuwsgierige reporter Kuifje en zijn trouwe hondje Bobbie ontdekken dat een model van het prachtige oude zeilschip 'De Eenhoorn' een geheim met zich meedraagt. Meegevoerd in een eeuwenoud mysterie, krijgt hij het aan de stok met de boosaardige Sacharin, die weet dat Kuifje een belangrijke aanwijzing bezit naar de grote schat van de snode piraat Scharlaken Rackham. Geholpen door de moedige Bobbie, de onstuimige kapitein Haddock en de stuntelige detectives Jansen en Janssen, reist Kuifje de halve wereld af, constant op de hielen gezeten door de vijand. Hij moet slimmer en sneller zijn dan de rest om het Geheim van de Eenhoorn te ontrafelen...\n\n\n\nVertaald door Simply ReleaseS Toppers\nTokke en Suurtje\n\n\n\n\n\nScreenshots:\n &lt;a href=&quot;\nhttp://img256.imageshack.us/img256/4531/screenshot1cr.jpg&quot; rel=&quot;nofollow&quot; target=&quot;_NEW&quot;&gt;\nhttp://img256.imageshack.us/img256/4531/screenshot1cr.jpg&lt;/a&gt;\n &lt;a href=&quot;\nhttp://img843.imageshack.us/img843/1224/screenshot2ba.jpg&quot; rel=&quot;nofollow&quot; target=&quot;_NEW&quot;&gt;\nhttp://img843.imageshack.us/img843/1224/screenshot2ba.jpg&lt;/a&gt;\n &lt;a href=&quot;\nhttp://img148.imageshack.us/img148/885/screenshot3da.jpg&quot; rel=&quot;nofollow&quot; target=&quot;_NEW&quot;&gt;\nhttp://img148.imageshack.us/img148/885/screenshot3da.jpg&lt;/a&gt;\n &lt;a href=&quot;\nhttp://img402.imageshack.us/img402/4478/screenshot4ew.jpg&quot; rel=&quot;nofollow&quot; target=&quot;_NEW&quot;&gt;\nhttp://img402.imageshack.us/img402/4478/screenshot4ew.jpg&lt;/a&gt;\n\n\n\nINFO;\n\n\nFormat                                   : AVI\nFormat/Info                              : Audio Video Interleave\nFile size                                : 705 MiB\nDuration                                 : 1h 39mn\nOverall bit rate mode                    : Variable\nOverall bit rate                         : 990 Kbps\nWriting application                      : VirtualDubMod 1.5.4.1 (build 2178/release)\nWriting library                          : VirtualDubMod build 2178/release\n\nVideo\nID                                       : 0\nFormat                                   : MPEG-4 Visual\nFormat profile                           : Advanced Simple@L5\nFormat settings, BVOP                    : 1\nFormat settings, QPel                    : No\nFormat settings, GMC                     : No warppoints\nFormat settings, Matrix                  : Custom\nCodec ID                                 : XVID\nCodec ID/Hint                            : XviD\nDuration                                 : 1h 39mn\nBit rate                                 : 875 Kbps\nWidth                                    : 656 pixels\nHeight                                   : 288 pixels\nDisplay aspect ratio                     : 2.25:1\nFrame rate                               : 25.000 fps\nColor space                              : YUV\nChroma subsampling                       : 4:2:0\nBit depth                                : 8 bits\nScan type                                : Progressive\nCompression mode                         : Lossy\nBits/(Pixel*Frame)                       : 0.185\nStream size                              : 624 MiB (88%)\nWriting library                          : XviD 64\n\nAudio\nID                                       : 1\nFormat                                   : MPEG Audio\nFormat version                           : Version 1\nFormat profile                           : Layer 3\nMode                                     : Joint stereo\nMode extension                           : MS Stereo\nCodec ID                                 : 55\nCodec ID/Hint                            : MP3\nDuration                                 : 1h 39mn\nBit rate mode                            : Variable\nBit rate                                 : 102 Kbps\nNominal bit rate                         : 128 Kbps\nChannel(s)                               : 2 channels\nSampling rate                            : 48.0 KHz\nCompression mode                         : Lossy\nStream size                              : 72.3 MiB (10%)\nAlignment                                : Aligned on interleaves\nInterleave, duration                     : 24 ms (0.60 video frame)\nInterleave, preload duration             : 510 ms\n\n\n\n &lt;a href=&quot;\nhttp://www.imdb.com/title/tt0983193/&quot; rel=&quot;nofollow&quot; target=&quot;_NEW&quot;&gt;\nhttp://www.imdb.com/title/tt0983193/&lt;/a&gt; &lt;a href=&quot;\nhttp://www.moviemeter.nl/film/71340&quot; rel=&quot;nofollow&quot; target=&quot;_NEW&quot;&gt;\nhttp://www.moviemeter.nl/film/71340&lt;/a&gt;\n\n\n\n\nDeze film wordt u aangeboden door het DutchReleaseTeam.\nVoor de reviews van de nieuwste films, muziek, series, games etc\nga dan eens naar http://www.hetmultimediacafe.be\n\nDutchReleaseteam = Hardcoded Dutch Subs","torrent":{"xt":"urn:btih:43ad771e17f67937355c34066b89a5c086c77ac0","amp;dn":"The+Adventures+of+Tintin+%282011%29+CAM+NL+subs+DutchReleaseTeam","amp;tr":["udp%3A%2F%2Ftracker.openbittorrent.com%3A80","udp%3A%2F%2Fopen.demonii.com%3A1337","udp%3A%2F%2Ftracker.coppersurfer.tk%3A6969","udp%3A%2F%2Fexodus.desync.com%3A6969"],"infoHash":"43ad771e17f67937355c34066b89a5c086c77ac0","infoHashBuffer":{"type":"Buffer","data":[67,173,119,30,23,246,121,55,53,92,52,6,107,137,165,192,134,199,122,192]},"announce":[],"urlList":[]}}